<?xml version="1.0" encoding="UTF-8" standalone="no"?>
<svg width="20px" height="20px" viewBox="0 0 20 20" version="1.1" xmlns="http://www.w3.org/2000/svg" xmlns:xlink="http://www.w3.org/1999/xlink">
    <!-- Generator: Sketch 39.1 (31720) - http://www.bohemiancoding.com/sketch -->
    <title>AddressIcon</title>
    <desc>Created with Sketch.</desc>
    <defs></defs>
    <g id="Symbols" stroke="none" stroke-width="1" fill="none" fill-rule="evenodd">
        <g id="Footer" transform="translate(-302.000000, -357.000000)" fill="#FFFFFF">
            <g id="Column-1">
                <g transform="translate(298.000000, 188.000000)">
                    <g id="Contact-Info" transform="translate(4.000000, 165.000000)">
                        <path d="M10,24 C4.47744,24 0,19.52256 0,14 C0,8.47744 4.47744,4 10,4 C15.52256,4 20,8.47744 20,14 C20,19.52256 15.52256,24 10,24 L10,24 Z M10,8 C7.79136,8 6,9.79136 6,12 C6,14.20864 10,20 10,20 C10,20 14,14.20864 14,12 C14,9.79136 12.20864,8 10,8 L10,8 Z M8.49984,12 C8.49984,11.17248 9.17248,10.49984 10,10.49984 C10.82752,10.49984 11.50016,11.17248 11.50016,12 C11.50016,12.82752 10.82752,13.50016 10,13.50016 C9.17248,13.50016 8.49984,12.82752 8.49984,12 L8.49984,12 Z" id="AddressIcon"></path>
                    </g>
                </g>
            </g>
        </g>
    </g>
</svg>