<?xml version="1.0" encoding="UTF-8" standalone="no"?>
<svg width="19px" height="13px" viewBox="0 0 19 13" version="1.1" xmlns="http://www.w3.org/2000/svg" xmlns:xlink="http://www.w3.org/1999/xlink">
    <!-- Generator: Sketch 39.1 (31720) - http://www.bohemiancoding.com/sketch -->
    <title>EmailIcon</title>
    <desc>Created with Sketch.</desc>
    <defs></defs>
    <g id="Symbols" stroke="none" stroke-width="1" fill="none" fill-rule="evenodd">
        <g id="Footer" transform="translate(-1251.000000, -306.000000)" stroke-width="0.5" stroke="#FFFFFF" fill="#FFFFFF">
            <g id="Column-4">
                <g transform="translate(1234.000000, 195.000000)">
                    <g id="NewsletterSubscribe" transform="translate(0.000000, 98.000000)">
                        <path d="M34.1494288,14 L18.8496573,14 C18.3810778,14 18,14.3903143 18,14.8679357 L18,24.1318308 C18,24.6106195 18.3819917,25 18.8496573,25 L34.1503427,25 C34.6189222,25 35,24.6096857 35,24.1318308 L35,14.8688695 C35,14.3903143 34.6189222,14 34.1494288,14 L34.1494288,14 Z M26.4995431,21.4271768 L19.0495632,14.5817364 L33.9451821,14.5817364 L26.4995431,21.4271768 Z M23.2528424,19.2248891 L18.5649913,24.0160438 L18.5649913,14.9136903 L23.2528424,19.2248891 Z M23.6750437,19.6117018 L26.4995431,22.2068717 L29.3240425,19.6117018 L34.0326838,24.422699 L18.9664024,24.422699 L23.6750437,19.6117018 Z M29.7462438,19.2248891 L34.4350087,14.9127565 L34.4350087,24.0160438 L29.7462438,19.2248891 Z" id="EmailIcon"></path>
                    </g>
                </g>
            </g>
        </g>
    </g>
</svg>