<?xml version="1.0" encoding="UTF-8" standalone="no"?>
<svg width="27px" height="27px" viewBox="0 0 27 27" version="1.1" xmlns="http://www.w3.org/2000/svg" xmlns:xlink="http://www.w3.org/1999/xlink">
    <!-- Generator: Sketch 39.1 (31720) - http://www.bohemiancoding.com/sketch -->
    <title>facebook</title>
    <desc>Created with Sketch.</desc>
    <defs></defs>
    <g id="Symbols" stroke="none" stroke-width="1" fill="none" fill-rule="evenodd">
        <g id="Footer" transform="translate(-1476.000000, -442.000000)" fill="#FFFFFF">
            <g id="Column-4">
                <g transform="translate(1234.000000, 195.000000)">
                    <g id="Social-Icons" transform="translate(242.000000, 247.000000)">
                        <g id="facebook">
                            <path d="M13.0210958,26.2174321 C5.8527484,26.2174321 0.0210958333,20.3857057 0.0210958333,13.2175968 C0.0210958333,6.04915854 5.8527484,0.217432099 13.0210958,0.217432099 C20.1894433,0.217432099 26.0210958,6.04915854 26.0210958,13.2175968 C26.0210958,20.3857057 20.1894433,26.2174321 13.0210958,26.2174321 L13.0210958,26.2174321 Z M13.0210958,1.20563699 C6.39757179,1.20563699 1.0092882,6.59398884 1.0092882,13.2175968 C1.0092882,19.8408754 6.39757179,25.2292272 13.0210958,25.2292272 C19.6442905,25.2292272 25.0329035,19.8408754 25.0329035,13.2175968 C25.0329035,6.59398884 19.6442905,1.20563699 13.0210958,1.20563699 L13.0210958,1.20563699 Z" id="Facebook-Circle"></path>
                            <path d="M13.8943466,19 L13.8943466,13.5263428 L15.663392,13.5263428 L15.9284523,11.392864 L13.8943466,11.392864 L13.8943466,10.0309953 C13.8943466,9.41339922 14.0596849,8.99255599 14.9123262,8.99255599 L16,8.99178592 L16,7.08393762 C15.8120482,7.05775525 15.1662651,7 14.4151993,7 C12.8470806,7 11.773494,7.9941603 11.773494,9.81961111 L11.773494,11.392864 L10,11.392864 L10,13.5263428 L11.773494,13.5263428 L11.773494,19 L13.8943466,19 Z" id="Facebook"></path>
                        </g>
                    </g>
                </g>
            </g>
        </g>
    </g>
</svg>