<?xml version="1.0" encoding="UTF-8" standalone="no"?>
<svg width="27px" height="27px" viewBox="0 0 27 27" version="1.1" xmlns="http://www.w3.org/2000/svg" xmlns:xlink="http://www.w3.org/1999/xlink">
    <!-- Generator: Sketch 39.1 (31720) - http://www.bohemiancoding.com/sketch -->
    <title>instagram</title>
    <desc>Created with Sketch.</desc>
    <defs></defs>
    <g id="Symbols" stroke="none" stroke-width="1" fill="none" fill-rule="evenodd">
        <g id="Footer" transform="translate(-1530.000000, -442.000000)" fill="#FFFFFF">
            <g id="Column-4">
                <g transform="translate(1234.000000, 195.000000)">
                    <g id="Social-Icons" transform="translate(242.000000, 247.000000)">
                        <g id="instagram" transform="translate(54.000000, 0.000000)">
                            <path d="M13.6999167,26.5631111 C6.53189863,26.5631111 0.699916667,20.7313847 0.699916667,13.5632758 C0.699916667,6.39483756 6.53189863,0.563111111 13.6999167,0.563111111 C20.8682641,0.563111111 26.6999167,6.39483756 26.6999167,13.5632758 C26.6999167,20.7313847 20.8682641,26.5631111 13.6999167,26.5631111 L13.6999167,26.5631111 Z M13.6999167,1.551316 C7.07672202,1.551316 1.68810903,6.93966785 1.68810903,13.5632758 C1.68810903,20.1865544 7.07672202,25.5749062 13.6999167,25.5749062 C20.3234407,25.5749062 25.7117243,20.1865544 25.7117243,13.5632758 C25.7117243,6.93966785 20.3234407,1.551316 13.6999167,1.551316 L13.6999167,1.551316 Z" id="Instagram-Circle"></path>
                            <path d="M18.5118667,6.83481481 L8.8468625,6.83481481 C8.01444167,6.83481481 7.33972083,7.50750617 7.33972083,8.33782716 L7.33972083,18.0054321 C7.33972083,18.8354074 8.01444167,19.5084444 8.8468625,19.5084444 L18.5118667,19.5084444 C19.3442875,19.5084444 20.0190083,18.8354074 20.0190083,18.0054321 L20.0190083,8.33782716 C20.0190083,7.50750617 19.3442875,6.83481481 18.5118667,6.83481481 L18.5118667,6.83481481 Z M16.4531208,8.8148642 C16.4531208,8.59639506 16.6305333,8.41871605 16.8491,8.41871605 L18.0377292,8.41871605 C18.2566417,8.41871605 18.4340542,8.59639506 18.4340542,8.8148642 L18.4340542,10.002963 C18.4340542,10.2217778 18.2566417,10.3991111 18.0377292,10.3991111 L16.8491,10.3991111 C16.6305333,10.3991111 16.4531208,10.2217778 16.4531208,10.002963 L16.4531208,8.8148642 L16.4531208,8.8148642 Z M13.6940625,10.7548148 C15.0407375,10.7548148 16.1325333,11.8437037 16.1325333,13.1859753 C16.1325333,14.529284 15.0407375,15.6178272 13.6940625,15.6178272 C12.3477333,15.6178272 11.2559375,14.529284 11.2559375,13.1859753 C11.2559375,11.8437037 12.3477333,10.7548148 13.6940625,10.7548148 L13.6940625,10.7548148 Z M18.8303792,17.9241975 C18.8303792,18.1426667 18.6529667,18.3203457 18.4340542,18.3203457 L8.924675,18.3203457 C8.7057625,18.3203457 8.52835,18.1426667 8.52835,17.9241975 L8.52835,11.983358 L10.1133042,11.983358 C9.90684167,12.2802963 9.83698333,12.8344198 9.83698333,13.1859753 C9.83698333,15.3070617 11.5675333,17.0326914 13.6940625,17.0326914 C15.8209375,17.0326914 17.5514875,15.3070617 17.5514875,13.1859753 C17.5514875,12.8344198 17.5013417,12.2885926 17.245425,11.983358 L18.8303792,11.983358 L18.8303792,17.9241975 L18.8303792,17.9241975 Z" id="Instagram"></path>
                        </g>
                    </g>
                </g>
            </g>
        </g>
    </g>
</svg>