<?xml version="1.0" encoding="UTF-8" standalone="no"?>
<svg width="151px" height="42px" viewBox="0 0 151 42" version="1.1" xmlns="http://www.w3.org/2000/svg" xmlns:xlink="http://www.w3.org/1999/xlink">
    <!-- Generator: Sketch 39.1 (31720) - http://www.bohemiancoding.com/sketch -->
    <title>Logo</title>
    <desc>Created with Sketch.</desc>
    <defs>
        <polygon id="path-1" points="38.039597 38.129 0 38.129 0 0.0761729069 38.039597 0.0761729069 38.039597 38.129"></polygon>
    </defs>
    <g id="Symbols" stroke="none" stroke-width="1" fill="none" fill-rule="evenodd">
        <g id="Footer" transform="translate(-89.000000, -248.000000)">
            <g transform="translate(-209.000000, 60.000000)" id="Column-1">
                <g transform="translate(298.000000, 188.000000)">
                    <g id="Logo">
                        <g id="Group-3" transform="translate(0.000000, 3.850000)">
                            <mask id="mask-2" fill="white">
                                <use xlink:href="#path-1"></use>
                            </mask>
                            <g id="Clip-2"></g>
                            <path d="M25.5721296,33.4691 C25.7909398,33.01025 26.0100995,32.5514 26.2278611,32.0915 C26.4872176,31.5448 26.7483218,30.99845 27.0020856,30.44895 C27.0768866,30.28655 27.1786019,30.2113 27.3652546,30.2134 C28.237,30.2239 29.1087454,30.2218 29.9804907,30.22635 C30.0594861,30.2267 30.1461713,30.20675 30.2265648,30.29145 C28.8797986,31.6442 27.3425347,32.71135 25.5721296,33.4691 L25.5721296,33.4691 Z M21.1012014,34.0522 C20.9306273,34.1964 20.7499167,34.3308 20.5636134,34.45365 C19.5195463,35.14385 18.468838,35.13265 17.4163819,34.47045 C16.7456204,34.048 16.2248102,33.4705 15.7529352,32.8447 C15.1908796,32.0999 14.7525602,31.283 14.3708657,30.4339 C14.3135417,30.3065 14.2572662,30.2057 14.4844653,30.20675 C17.5373218,30.2218 20.5901782,30.2316 23.6430347,30.2428 C23.6510741,30.2428 23.6591134,30.24735 23.702456,30.25995 C23.0330926,31.67395 22.31025,33.02985 21.1012014,34.0522 L21.1012014,34.0522 Z M12.3641736,33.4838 C10.6367616,32.66515 9.0949537,31.5938 7.74189583,30.21445 C7.85584491,30.14865 7.96035648,30.15495 8.06277083,30.1553 C8.909,30.15775 9.75522917,30.16335 10.6011088,30.16125 C10.7891597,30.1609 10.9090509,30.22005 10.9782593,30.4087 C11.3431759,31.40655 11.787088,32.36835 12.3183843,33.28885 C12.3498426,33.3431 12.3998264,33.3984 12.3641736,33.4838 L12.3641736,33.4838 Z M5.66215046,27.0095 C5.39405556,27.01055 5.23921065,26.9129 5.11267824,26.6784 C4.13257639,24.86155 3.51809028,22.9306 3.2681713,20.88135 C3.24090741,20.65805 3.35240972,20.629 3.52647917,20.63005 C4.41465278,20.63495 5.30317593,20.63635 6.19134954,20.6395 C7.06309491,20.64195 7.93484028,20.65245 8.80623611,20.643 C9.0533588,20.6402 9.14318981,20.72805 9.15297685,20.96955 C9.23197222,22.9145 9.46721065,24.8402 9.8971412,26.74 C9.9404838,26.93215 9.92650231,27.0284 9.67099074,27.02455 C8.33506019,27.00495 6.99843056,27.0032 5.66215046,27.0095 L5.66215046,27.0095 Z M3.45936806,17.4706 C3.3097662,17.4706 3.24615046,17.4433 3.26921991,17.26375 C3.53207176,15.2341 4.14201389,13.31925 5.11093056,11.51535 C5.26996991,11.21855 5.46606019,11.09955 5.7974213,11.1048 C7.10888426,11.12615 8.42069676,11.1349 9.73215972,11.13175 C9.97438889,11.13105 9.98732176,11.228 9.9443287,11.41035 C9.75627778,12.21045 9.61191898,13.0186 9.48923148,13.83165 C9.32215278,14.9415 9.21484491,16.0566 9.16625926,17.1773 C9.15647222,17.40655 9.07153472,17.50385 8.83874306,17.50175 L3.45936806,17.4706 L3.45936806,17.4706 Z M12.4389745,4.80025 C12.0516875,5.614 11.66475,6.42775 11.2771134,7.2415 C10.857669,8.12315 11.0708866,7.9674 10.112456,7.97615 C9.45742361,7.98175 8.8023912,7.9744 8.1473588,7.9702 C8.04389583,7.96985 7.94008333,7.95725 7.78418981,7.94675 C9.14738426,6.56495 10.6675208,5.5104 12.4389745,4.80025 L12.4389745,4.80025 Z M0.0636157407,20.321 C0.143310185,21.1316 0.313884259,22.5484 0.577085648,23.64005 C1.43764583,27.2125 3.1926713,30.27605 5.84425926,32.81425 C8.90305787,35.74235 12.5483796,37.4682 16.742125,37.9946 C19.6467778,38.35895 22.4871157,38.0947 25.2655856,37.0867 C30.133588,35.3206 33.7348681,32.1181 36.0582407,27.52645 C38.1344907,23.4234 38.5210787,19.0785 37.4885463,14.6076 C37.1477477,13.1313 35.9680602,9.66525 35.2717824,8.31425 C35.1707662,8.3839 35.1351134,8.48785 35.0868773,8.58165 C34.5723588,9.5851 34.1004838,10.68235 33.5845671,11.6851 C33.4674722,11.91225 33.4475486,12.1359 33.5300394,12.3809 C34.0449074,13.3182 34.6475093,16.2694 34.7642546,17.2613 C34.7988588,17.556 34.7908194,17.5686 34.4832269,17.56825 C34.0347708,17.56755 31.8222014,17.57175 31.3737454,17.57035 C30.9424167,17.56895 30.9207454,17.58715 30.8490903,18.01555 C30.8438472,18.0481 30.8427986,18.0817 30.8379051,18.1146 C30.7215093,18.88215 30.6973912,19.65565 30.6715255,20.42635 C30.6634861,20.66225 30.7281505,20.7368 30.9567477,20.73365 C31.5376782,20.7256 33.9585718,20.73015 34.5398519,20.72875 C34.7160185,20.72805 34.7852269,20.77355 34.7611088,20.97725 C34.5171319,23.02195 33.8802755,24.9361 32.8998241,26.74245 C32.7638542,26.99305 32.6020185,27.09945 32.3129514,27.09525 C30.9850602,27.076 29.6564699,27.07145 28.3282292,27.07355 C28.1125648,27.0739 28.0713194,27.0263 28.113963,26.81 C28.3981366,25.37605 28.6071597,23.9302 28.7581597,22.4763 C28.7731898,22.3321 28.7627037,22.27505 28.5921296,22.2761 C27.6955671,22.28275 26.7986551,22.27855 25.9020926,22.26945 C25.6983125,22.26735 25.6287546,22.35415 25.6098796,22.54805 C25.4728611,23.9631 25.2362245,25.36135 24.8992708,26.7428 C24.8436944,26.9703 24.7468727,27.07145 24.4931088,27.07005 C20.8317083,27.0508 17.1699583,27.03925 13.5085579,27.03435 C13.2628333,27.034 13.151331,26.94965 13.0971528,26.71375 C12.6658241,24.84055 12.3854954,22.9467 12.3078981,21.0245 C12.2928681,20.6591 12.2932176,20.65875 12.6700185,20.66015 C14.3142407,20.6654 15.9581134,20.66995 17.6019861,20.6759 C19.8107106,20.6836 22.1543565,20.6927 24.363081,20.7011 C24.528412,20.7018 24.6689259,20.66505 24.6661296,20.4617 C24.6542454,19.62345 24.5920278,18.78205 24.4410278,17.9487 C24.3749653,17.5833 24.3246319,17.53605 23.9551713,17.535 C22.0956343,17.5287 20.2357477,17.52275 18.3758611,17.5168 C16.4411736,17.51085 14.5068356,17.5028 12.5721481,17.50105 C12.3942338,17.50105 12.2932176,17.47585 12.3047523,17.25955 C12.4061181,15.3566 12.6689699,13.47675 13.1058912,11.62175 C13.2159954,11.15555 13.2485023,11.13245 13.726669,11.13525 C15.519794,11.1454 17.312919,11.1573 19.106044,11.16745 C19.828537,11.1713 20.5506806,11.1727 21.2731736,11.1741 C21.7188333,11.1755 21.715338,11.17655 21.5290347,10.7877 C21.1420972,9.9806 20.7499167,9.1756 20.3797569,8.36045 C20.2633611,8.1039 20.1099144,8.0031 19.8288866,8.0038 C18.1266412,8.008 16.4247454,7.99785 14.7225,7.9919 C14.6029583,7.99155 14.4802708,8.00345 14.3523403,7.93765 C14.9545926,6.5919 15.6648519,5.3361 16.7428241,4.32075 C17.3286481,3.7688 17.978088,3.33865 18.8005486,3.25185 C18.9987361,3.23085 19.0749352,3.1549 19.0791296,2.9575 C19.0983542,2.0629 19.2580926,1.19175 19.5405185,0.34335 C19.6083287,0.14 19.5373727,0.09835 19.3398843,0.08855 C18.4160579,0.04445 17.5002708,0.1239 16.5858819,0.2366 C14.3355625,0.5145 12.1970949,1.1557 10.1869074,2.2141 C7.69121296,3.52835 5.64187731,5.3662 3.92215509,7.5859 C1.88889815,10.2102 0.396724537,13.608 0.159388889,16.45665 C-0.0104861111,17.9039 -0.0482361111,19.11315 0.0636157407,20.321 L0.0636157407,20.321 Z" id="Fill-1" fill="#FFFFFF" mask="url(#mask-2)"></path>
                        </g>
                        <path d="M27.6574676,10.94205 C25.6647569,10.90495 24.0596829,9.2708 24.1068704,7.3269 C24.155456,5.3277 25.797581,3.7289 27.756037,3.77475 C29.7085509,3.8199 31.3101296,5.481 31.2632917,7.41195 C31.2150556,9.3933 29.5966991,10.97775 27.6574676,10.94205 L27.6574676,10.94205 Z M34.5943796,7.1988 C34.5943796,7.13685 34.5866898,7.077 34.5849421,7.0154 C34.5817963,6.8628 34.5748056,6.7116 34.5622222,6.5625 C34.5573287,6.50965 34.5513866,6.4568 34.5454444,6.40395 C34.5237731,6.2034 34.493713,6.00565 34.4549144,5.8107 C34.4538657,5.8065 34.4531667,5.8023 34.4524676,5.7981 C34.3640347,5.35745 34.2322593,4.9322 34.0578403,4.52305 C34.0529468,4.5115 34.0480532,4.49995 34.0431597,4.4884 C33.9732523,4.3267 33.8967037,4.1678 33.8135139,4.011 C33.7747153,3.93645 33.7345185,3.8633 33.6932731,3.7905 C33.6467847,3.71 33.5981991,3.6302 33.5478657,3.55075 C33.4587338,3.40725 33.3647083,3.2676 33.2654398,3.13145 C33.2587986,3.122 33.2514583,3.1129 33.2444676,3.10345 C32.8851435,2.61485 32.4663981,2.1742 31.9938241,1.7955 C31.9480347,1.7584 31.8997986,1.7262 31.8533102,1.6905 C31.5977986,1.49625 31.3314514,1.31635 31.0500741,1.15885 C30.9924005,1.12665 30.9336782,1.09585 30.874956,1.0654 C30.5750532,0.9086 30.261169,0.7756 29.9371481,0.6636 C29.9130301,0.65555 29.8899606,0.6454 29.8654931,0.6377 C29.4953333,0.51415 29.1104931,0.4249 28.7151667,0.36575 C28.7127199,0.36505 28.7102731,0.364 28.7074769,0.36365 L28.7011852,0.3633 C28.3684259,0.3143 28.0311227,0.28035 27.685081,0.28035 C27.340787,0.28035 27.0052315,0.31395 26.6745694,0.3626 C26.6717731,0.36295 26.6640833,0.36365 26.6623356,0.36365 C26.6598889,0.364 26.6574421,0.36505 26.6546458,0.36575 C26.259669,0.4249 25.8748287,0.51415 25.5043194,0.6377 C25.4802014,0.6454 25.4571319,0.65555 25.4330139,0.6636 C25.1089931,0.7756 24.7954583,0.9086 24.495206,1.0654 C24.4364838,1.09585 24.377412,1.12665 24.3193889,1.1592 C24.0383611,1.3167 23.7723634,1.49625 23.5172014,1.69015 C23.470713,1.7262 23.4221273,1.7584 23.376338,1.79585 C22.9037639,2.17385 22.4853681,2.6145 22.126044,3.1024 C22.1187037,3.11255 22.1113634,3.12235 22.1040231,3.13215 C22.0051042,3.26795 21.9114282,3.4069 21.8226458,3.55005 C21.771963,3.62985 21.7233773,3.71 21.6761898,3.7912 C21.635294,3.86365 21.5954468,3.93645 21.5569977,4.0103 C21.4734583,4.16745 21.3969097,4.32705 21.3270023,4.48875 C21.3221088,4.5003 21.3172153,4.51115 21.3126713,4.5227 C21.1379028,4.9322 21.0061273,5.3578 20.9176944,5.79915 C20.9169954,5.80265 20.9162963,5.80615 20.9152477,5.80965 C20.8764491,6.0053 20.8463889,6.20375 20.8247176,6.40535 C20.8187755,6.4575 20.8128333,6.5093 20.8079398,6.5618 C20.7950069,6.7116 20.7883657,6.8635 20.7848704,7.0168 C20.7834722,7.0777 20.7757824,7.1372 20.7757824,7.1988 C20.7757824,7.2352 20.7806759,7.2702 20.781375,7.30625 C20.7817245,7.34615 20.7782292,7.38465 20.7796273,7.4249 C20.781375,7.4746 20.7918611,7.5222 20.7946574,7.57155 C20.8065417,7.7987 20.8292616,8.02235 20.8628171,8.24285 C20.8719051,8.30235 20.8795949,8.36255 20.890081,8.4217 C20.9271319,8.6296 20.9743194,8.8333 21.0291968,9.03385 C21.2004699,9.6978 21.4385046,10.3446 21.7097454,10.98055 C22.4888634,12.80755 23.4277199,14.55755 24.320787,16.3289 C25.5892569,18.84435 26.104125,21.40565 26.2072384,24.2823 C26.2138796,24.4671 26.3148958,24.52905 26.4921111,24.5252 C26.660588,24.5217 27.1523866,24.51785 27.685081,24.5161 C28.2177755,24.51785 28.7095741,24.5217 28.8780509,24.5252 C29.0552662,24.52905 29.1562824,24.4671 29.1629236,24.2823 C29.266037,21.40565 29.7809051,18.84435 31.049375,16.3289 C31.9424421,14.55755 32.8812986,12.80755 33.6604167,10.98055 C33.9316574,10.3453 34.1689931,9.6992 34.3402662,9.0356 C34.3958426,8.834 34.4430301,8.6296 34.480081,8.421 C34.4905671,8.36255 34.4979074,8.30305 34.5073449,8.2439 C34.5409005,8.0227 34.5636204,7.79835 34.5755046,7.5705 C34.5783009,7.5215 34.588787,7.47425 34.5905347,7.4249 C34.5915833,7.385 34.588088,7.34685 34.588787,7.3073 C34.5894861,7.2709 34.5943796,7.23555 34.5943796,7.1988 L34.5943796,7.1988 Z" id="Fill-4" fill="#FFFFFF"></path>
                        <g id="Group-15" transform="translate(128.629630, 12.600000)"></g>
                        <g id="Group-10" transform="translate(45.000000, 15.000000)" fill="#FFFFFF">
                            <path d="M3.93972917,6.6291 C3.93972917,6.7404 4.02990972,6.83035 4.1410625,6.83035 L5.90377778,6.83035 C6.4843588,6.83035 6.92652315,6.6851 7.23131944,6.3946 C7.5357662,6.10375 7.68816435,5.69355 7.68816435,5.1633 C7.68816435,4.58195 7.53122222,4.1175 7.21838657,3.76995 C6.90520139,3.42205 6.47841667,3.24565 5.93768287,3.2397 L4.1410625,3.2397 C4.02990972,3.2397 3.93972917,3.33 3.93972917,3.44095 L3.93972917,6.6291 L3.93972917,6.6291 Z M3.93972917,9.3486 L3.93972917,13.16955 C3.93972917,13.28085 3.84989815,13.3708 3.73874537,13.3708 L1.14413194,13.3708 C1.03297917,13.3708 0.942798611,13.28085 0.942798611,13.16955 L0.942798611,1.1243 C0.942798611,1.013 1.03297917,0.9227 1.14413194,0.9227 L5.90377778,0.9227 C6.85416898,0.9227 7.69515509,1.09805 8.42673611,1.44875 C9.15796759,1.7991 9.72456713,2.29785 10.1258356,2.94465 C10.5271042,3.5918 10.7277384,4.3254 10.7277384,5.14615 C10.7277384,6.3603 10.2932639,7.3305 9.42571296,8.05745 C8.55746296,8.78405 7.36624074,9.14735 5.85239583,9.14735 L4.1410625,9.14735 C4.02990972,9.14735 3.93972917,9.23765 3.93972917,9.3486 L3.93972917,9.3486 Z" id="Fill-5"></path>
                            <path d="M15.8781667,11.06255 L20.6926898,11.06255 C20.8038426,11.06255 20.8940231,11.15285 20.8940231,11.2638 L20.8940231,13.16955 C20.8940231,13.28085 20.8038426,13.3708 20.6926898,13.3708 L12.8812361,13.3708 C12.7700833,13.3708 12.6802523,13.28085 12.6802523,13.16955 L12.6802523,1.1243 C12.6802523,1.013 12.7700833,0.9227 12.8812361,0.9227 L15.4758495,0.9227 C15.5870023,0.9227 15.6771829,1.013 15.6771829,1.1243 L15.6771829,10.8613 C15.6771829,10.9726 15.7670139,11.06255 15.8781667,11.06255" id="Fill-6"></path>
                            <path d="M27.5750741,8.7284 L29.7020069,8.7284 C29.8372778,8.7284 29.9340995,8.5968 29.8939028,8.4673 L28.8271157,5.03135 C28.7683935,4.84235 28.5013472,4.8427 28.4429745,5.0317 L27.3831782,8.46765 C27.3429815,8.59715 27.4398032,8.7284 27.5750741,8.7284 L27.5750741,8.7284 Z M30.5443912,11.0454 L26.7337384,11.0454 C26.6456551,11.0454 26.5677083,11.10315 26.5414931,11.1875 L25.9119769,13.22905 C25.8861111,13.3134 25.8081644,13.3708 25.7197315,13.3708 L22.9541944,13.3708 C22.8147292,13.3708 22.7175579,13.2315 22.7654444,13.10025 L27.1773009,1.055 C27.2063125,0.97555 27.2818125,0.9227 27.3660509,0.9227 L29.9029907,0.9227 C29.9872292,0.9227 30.0627292,0.9752 30.0917407,1.0543 L34.5368032,13.0999 C34.5850394,13.23115 34.4878681,13.3708 34.3480532,13.3708 L31.5657384,13.3708 C31.4776551,13.3708 31.4000579,13.31375 31.3738426,13.22975 L30.736287,11.1868 C30.7100718,11.1028 30.632125,11.0454 30.5443912,11.0454 L30.5443912,11.0454 Z" id="Fill-7"></path>
                            <path d="M46.1924653,9.1561 C46.3106088,9.1561 46.4084792,9.26075 46.3983426,9.37905 C46.3312315,10.1543 46.1029838,10.8452 45.7129005,11.45175 C45.2861157,12.1157 44.6866597,12.6302 43.915581,12.9949 C43.1441528,13.3596 42.263669,13.54195 41.273081,13.54195 C39.6393449,13.54195 38.3530486,13.00925 37.4138426,11.94315 C36.4746366,10.8774 36.0052083,9.37275 36.0052083,7.42885 L36.0052083,6.81355 C36.0052083,5.5938 36.2170278,4.5263 36.6410162,3.61175 C37.0650046,2.69685 37.6756458,1.9902 38.4725903,1.49145 C39.2695347,0.9927 40.1916134,0.74315 41.2388264,0.74315 C42.7470787,0.74315 43.9596227,1.14075 44.8761088,1.93595 C45.7415625,2.6867 46.2539838,3.7059 46.4140718,4.9925 C46.4291019,5.11325 46.3319306,5.22315 46.2106412,5.22315 L43.6335046,5.22315 C43.5279444,5.22315 43.44825,5.13705 43.4405602,5.03135 C43.3933727,4.37265 43.2060208,3.89245 42.8781551,3.5904 C42.5195301,3.25965 41.9732037,3.09445 41.2388264,3.09445 C40.4929144,3.09445 39.946588,3.37375 39.5994977,3.93235 C39.2524074,4.49095 39.0702986,5.38275 39.0531713,6.6081 L39.0531713,7.4887 C39.0531713,8.81695 39.2195509,9.76615 39.5526597,10.33595 C39.8857685,10.9061 40.4590093,11.191 41.273081,11.191 C41.961669,11.191 42.4880718,11.02825 42.8526389,10.70345 C43.1833009,10.4084 43.3734491,9.9562 43.4227338,9.3458 C43.4311227,9.24115 43.5143125,9.1561 43.6195231,9.1561 L46.1924653,9.1561" id="Fill-8"></path>
                            <path d="M56.6506134,8.0872 L52.3397731,8.0872 C52.2286204,8.0872 52.1387894,8.1775 52.1387894,8.28845 L52.1387894,10.8613 C52.1387894,10.9726 52.2286204,11.06255 52.3397731,11.06255 L57.5045324,11.06255 C57.6156852,11.06255 57.7055162,11.15285 57.7055162,11.2638 L57.7055162,13.16955 C57.7055162,13.28085 57.6156852,13.3708 57.5045324,13.3708 L49.3428426,13.3708 C49.2320394,13.3708 49.1418588,13.28085 49.1418588,13.16955 L49.1418588,1.1243 C49.1418588,1.013 49.2320394,0.9227 49.3428426,0.9227 L57.5216597,0.9227 C57.6328125,0.9227 57.7226435,1.013 57.7226435,1.1243 L57.7226435,3.03845 C57.7226435,3.14975 57.6328125,3.2397 57.5216597,3.2397 L52.3397731,3.2397 C52.2286204,3.2397 52.1387894,3.33 52.1387894,3.44095 L52.1387894,5.6631 C52.1387894,5.7744 52.2286204,5.86435 52.3397731,5.86435 L56.6506134,5.86435 C56.7617662,5.86435 56.8519468,5.95465 56.8519468,6.0656 L56.8519468,7.88595 C56.8519468,7.99725 56.7617662,8.0872 56.6506134,8.0872" id="Fill-9"></path>
                            <path d="M63.8720486,6.6291 C63.8720486,6.7404 63.9618796,6.83035 64.0730324,6.83035 L65.8357477,6.83035 C66.4163287,6.83035 66.8588426,6.6851 67.1632894,6.3946 C67.4677361,6.10375 67.6201343,5.69355 67.6201343,5.1633 C67.6201343,4.58195 67.4635417,4.1175 67.150706,3.76995 C66.8375208,3.42205 66.4103866,3.24565 65.8700023,3.2397 L64.0730324,3.2397 C63.9618796,3.2397 63.8720486,3.33 63.8720486,3.44095 L63.8720486,6.6291 L63.8720486,6.6291 Z M63.8720486,9.3486 L63.8720486,13.16955 C63.8720486,13.28085 63.7818681,13.3708 63.6710648,13.3708 L61.0761019,13.3708 C60.9652986,13.3708 60.8751181,13.28085 60.8751181,13.16955 L60.8751181,1.1243 C60.8751181,1.013 60.9652986,0.9227 61.0761019,0.9227 L65.8357477,0.9227 C66.7861389,0.9227 67.627125,1.09805 68.358706,1.44875 C69.0899375,1.7991 69.656537,2.29785 70.0578056,2.94465 C70.4590741,3.5918 70.6597083,4.3254 70.6597083,5.14615 C70.6597083,6.3603 70.2255833,7.3305 69.3576829,8.05745 C68.4894329,8.78405 67.2985602,9.14735 65.7843657,9.14735 L64.0730324,9.14735 C63.9618796,9.14735 63.8720486,9.23765 63.8720486,9.3486 L63.8720486,9.3486 Z" id="Fill-10"></path>
                            <path d="M75.6734676,8.7284 L77.8004005,8.7284 C77.9360208,8.7284 78.0324931,8.5968 77.9922963,8.4673 L76.9255093,5.03135 C76.866787,4.84235 76.5997407,4.8427 76.5413681,5.0317 L75.4815718,8.46765 C75.441375,8.59715 75.5381968,8.7284 75.6734676,8.7284 L75.6734676,8.7284 Z M78.6427847,11.0454 L74.8321319,11.0454 C74.7440486,11.0454 74.6661019,11.10315 74.6398866,11.1875 L74.0103704,13.22905 C73.9845046,13.3134 73.9065579,13.3708 73.818125,13.3708 L71.052588,13.3708 C70.9127731,13.3708 70.8159514,13.2315 70.863838,13.10025 L75.2756944,1.055 C75.304706,0.97555 75.380206,0.9227 75.4644444,0.9227 L78.0017338,0.9227 C78.0859722,0.9227 78.1611227,0.9752 78.1901343,1.0543 L82.6351968,13.0999 C82.6837824,13.23115 82.5866111,13.3708 82.4464468,13.3708 L79.6641319,13.3708 C79.5763981,13.3708 79.4984514,13.31375 79.4722361,13.22975 L78.8346806,11.1868 C78.8084653,11.1028 78.7308681,11.0454 78.6427847,11.0454 L78.6427847,11.0454 Z" id="Fill-11"></path>
                            <path d="M90.7269792,10.06225 C90.7269792,9.6237 90.5717847,9.28175 90.2613958,9.0364 C89.9510069,8.7914 89.4060787,8.53765 88.6266111,8.2755 C87.8464444,8.01335 87.2092384,7.7596 86.7139444,7.5146 C85.1029282,6.7222 84.2975949,5.6337 84.2975949,4.2484 C84.2975949,3.5589 84.4982292,2.9506 84.8994977,2.42315 C85.3007662,1.89605 85.8687639,1.48585 86.6027917,1.1922 C87.337169,0.89855 88.1624259,0.7519 89.078912,0.7519 C89.9723287,0.7519 90.7738171,0.9115 91.4823287,1.2307 C92.1911898,1.5499 92.7417106,2.0042 93.1345903,2.5943 C93.4900694,3.12805 93.684412,3.7304 93.7183171,4.4017 C93.7242593,4.51685 93.6284861,4.61625 93.5131389,4.61625 L91.1041296,4.61625 C90.8245,4.61625 90.7367662,4.5221 90.7259306,4.40555 C90.687831,3.99885 90.5357824,3.6758 90.2701343,3.4364 C89.9597454,3.1571 89.5399514,3.01745 89.0107523,3.01745 C88.4756111,3.01745 88.0530208,3.13575 87.7426319,3.37235 C87.4322431,3.60895 87.2773981,3.9096 87.2773981,4.2743 C87.2773981,4.5935 87.4483218,4.8826 87.7898194,5.14195 C88.1313171,5.4013 88.7318218,5.6694 89.5913333,5.94555 C90.4504954,6.22205 91.1565602,6.5199 91.7088287,6.8391 C93.0520995,7.61435 93.7239097,8.6829 93.7239097,10.0451 C93.7239097,11.13395 93.3139028,11.989 92.4942384,12.6099 C91.6745741,13.2315 90.550463,13.54195 89.1215556,13.54195 C88.1141898,13.54195 87.2018981,13.36135 86.3853796,12.9991 C85.568162,12.6372 84.9536759,12.14125 84.5408727,11.51125 C84.1644213,10.93725 83.9599421,10.28345 83.9267361,9.5502 C83.9214931,9.43505 84.0186644,9.33565 84.133662,9.33565 L86.7471505,9.33565 C86.8478171,9.33565 86.9268125,9.4186 86.9320556,9.51975 C86.9614167,10.09375 87.1319907,10.5239 87.4441273,10.81055 C87.7880718,11.1266 88.347331,11.2848 89.1215556,11.2848 C89.6168495,11.2848 90.0079815,11.17805 90.2956505,10.9642 C90.5829699,10.7507 90.7269792,10.45005 90.7269792,10.06225" id="Fill-12"></path>
                            <path d="M102.983845,10.06225 C102.983845,9.6237 102.82865,9.28175 102.518611,9.0364 C102.208222,8.7914 101.663294,8.53765 100.883477,8.2755 C100.10366,8.01335 99.4661042,7.7596 98.9711597,7.5146 C97.3601435,6.7222 96.5548102,5.6337 96.5548102,4.2484 C96.5548102,3.5589 96.7554444,2.9506 97.156713,2.42315 C97.5579815,1.89605 98.1256296,1.48585 98.8600069,1.1922 C99.5943843,0.89855 100.419292,0.7519 101.336127,0.7519 C102.229544,0.7519 103.031032,0.9115 103.739544,1.2307 C104.448056,1.5499 104.998926,2.0042 105.391806,2.5943 C105.746935,3.12805 105.941627,3.7304 105.975532,4.4017 C105.981125,4.51685 105.883954,4.61625 105.768956,4.61625 L103.200208,4.61625 C103.083463,4.61625 102.993981,4.5221 102.982796,4.40555 C102.945046,3.99885 102.792998,3.6758 102.527,3.4364 C102.216611,3.1571 101.797167,3.01745 101.267618,3.01745 C100.732477,3.01745 100.309887,3.13575 99.9998472,3.37235 C99.6894583,3.60895 99.5346134,3.9096 99.5346134,4.2743 C99.5346134,4.5935 99.7051875,4.8826 100.046685,5.14195 C100.388183,5.4013 100.988687,5.6694 101.848199,5.94555 C102.707711,6.22205 103.413426,6.5199 103.965694,6.8391 C105.308965,7.61435 105.980775,8.6829 105.980775,10.0451 C105.980775,11.13395 105.571118,11.989 104.751454,12.6099 C103.931789,13.2315 102.807329,13.54195 101.378771,13.54195 C100.371405,13.54195 99.4587639,13.36135 98.6422454,12.9991 C97.8253773,12.6372 97.2105417,12.14125 96.798088,11.51125 C96.4216366,10.93725 96.2168079,10.28345 96.1839514,9.5502 C96.1787083,9.43505 96.2755301,9.33565 96.3908773,9.33565 L99.0040162,9.33565 C99.1050324,9.33565 99.1840278,9.4186 99.1889213,9.51975 C99.2182824,10.09375 99.3888565,10.5239 99.7009931,10.81055 C100.045287,11.1266 100.604546,11.2848 101.378771,11.2848 C101.874065,11.2848 102.265197,11.17805 102.552866,10.9642 C102.839836,10.7507 102.983845,10.45005 102.983845,10.06225" id="Fill-14"></path>
                        </g>
                    </g>
                </g>
            </g>
        </g>
    </g>
</svg>