<?xml version="1.0" encoding="UTF-8" standalone="no"?>
<svg width="20px" height="20px" viewBox="0 0 20 20" version="1.1" xmlns="http://www.w3.org/2000/svg" xmlns:xlink="http://www.w3.org/1999/xlink">
    <!-- Generator: Sketch 39.1 (31720) - http://www.bohemiancoding.com/sketch -->
    <title>PhoneIcon</title>
    <desc>Created with Sketch.</desc>
    <defs></defs>
    <g id="Symbols" stroke="none" stroke-width="1" fill="none" fill-rule="evenodd">
        <g id="Footer" transform="translate(-302.000000, -450.000000)" fill="#FFFFFF">
            <g id="Column-1">
                <g transform="translate(298.000000, 188.000000)">
                    <g id="Contact-Info" transform="translate(4.000000, 165.000000)">
                        <path d="M10,117 C4.47744,117 0,112.52256 0,107 C0,101.47744 4.47744,97 10,97 C15.52256,97 20,101.47744 20,107 C20,112.52256 15.52256,117 10,117 Z M8.41529458,101.8 L8.23065031,101.8 C7.50247822,101.8 6.80393387,102.089399 6.28862293,102.60471 C5.74509511,103.148238 5.44,103.885228 5.44,104.654138 C5.44,105.167333 5.57632284,105.670828 5.83468373,106.114539 C7.09262791,108.271367 8.88792747,110.066667 11.0454613,111.325316 C11.4884665,111.583677 11.992667,111.72 12.5058617,111.72 C13.2747719,111.72 14.0117618,111.414905 14.5552896,110.871201 C15.0706005,110.356066 15.36,109.657522 15.36,108.92935 L15.36,108.744 L12.7146667,107.752 L11.7219612,108.744 C10.4123449,107.871216 9.28807822,106.74695 8.41529458,105.437333 L9.40729458,104.445333 L8.41529458,101.8 Z" id="PhoneIcon"></path>
                    </g>
                </g>
            </g>
        </g>
    </g>
</svg>