<?xml version="1.0" encoding="UTF-8" standalone="no"?>
<svg width="27px" height="27px" viewBox="0 0 27 27" version="1.1" xmlns="http://www.w3.org/2000/svg" xmlns:xlink="http://www.w3.org/1999/xlink">
    <!-- Generator: Sketch 39.1 (31720) - http://www.bohemiancoding.com/sketch -->
    <title>twitter</title>
    <desc>Created with Sketch.</desc>
    <defs></defs>
    <g id="Symbols" stroke="none" stroke-width="1" fill="none" fill-rule="evenodd">
        <g id="Footer" transform="translate(-1583.000000, -442.000000)" fill="#FFFFFF">
            <g id="Column-4">
                <g transform="translate(1234.000000, 195.000000)">
                    <g id="Social-Icons" transform="translate(242.000000, 247.000000)">
                        <g id="twitter" transform="translate(107.000000, 0.000000)">
                            <path d="M13.7790833,26.5631111 C6.61106529,26.5631111 0.779083333,20.7313847 0.779083333,13.5632758 C0.779083333,6.39483756 6.61106529,0.563111111 13.7790833,0.563111111 C20.9474308,0.563111111 26.7790833,6.39483756 26.7790833,13.5632758 C26.7790833,20.7313847 20.9474308,26.5631111 13.7790833,26.5631111 L13.7790833,26.5631111 Z M13.7790833,1.551316 C7.15588868,1.551316 1.7672757,6.93966785 1.7672757,13.5632758 C1.7672757,20.1865544 7.15588868,25.5749062 13.7790833,25.5749062 C20.4026074,25.5749062 25.790891,20.1865544 25.790891,13.5632758 C25.790891,6.93966785 20.4026074,1.551316 13.7790833,1.551316 L13.7790833,1.551316 Z" id="Twitter-Circle"></path>
                            <path d="M20.3878333,7.93753086 C19.873925,8.24933333 19.3060667,8.47609877 18.6991292,8.5974321 C18.2156542,8.06854321 17.5246792,7.73807407 16.7596958,7.73807407 C15.2933625,7.73807407 14.10335,8.95762963 14.10335,10.461679 C14.10335,10.674963 14.126175,10.8823704 14.171825,11.0818272 C11.9633333,10.9680988 10.0055708,9.88508642 8.69417083,8.23516049 C8.46522917,8.63891358 8.33450417,9.10730864 8.33450417,9.60577778 C8.33450417,10.5505185 8.80345417,11.3842963 9.51690833,11.8727407 C9.08185,11.8596049 8.67134583,11.7358519 8.31237083,11.5329383 L8.31237083,11.5664691 C8.31237083,12.8866173 9.22848333,13.9879506 10.445125,14.2371852 C10.2224083,14.3011358 9.98724167,14.3329383 9.7448125,14.3329383 C9.573625,14.3329383 9.4065875,14.3166914 9.2447375,14.2848889 C9.5829625,15.3665185 10.5637458,16.154321 11.7267833,16.1750617 C10.8175875,16.9061728 9.67115,17.3417284 8.42649583,17.3417284 C8.21207917,17.3417284 8.00008333,17.329284 7.79258333,17.3043951 C8.96841667,18.0759506 10.3659292,18.5270617 11.8661542,18.5270617 C16.7545083,18.5270617 19.4267625,14.3775309 19.4267625,10.7779753 C19.4267625,10.6594074 19.4246875,10.5411852 19.4201917,10.425037 C19.9392875,10.040642 20.3902542,9.56153086 20.7450792,9.01535802 C20.2692125,9.23175309 19.7566875,9.37832099 19.2192625,9.444 C19.7681,9.10730864 20.189325,8.57323457 20.3878333,7.93753086" id="Twitter"></path>
                        </g>
                    </g>
                </g>
            </g>
        </g>
    </g>
</svg>