<?xml version="1.0" encoding="UTF-8" standalone="no"?>
<svg width="27px" height="27px" viewBox="0 0 27 27" version="1.1" xmlns="http://www.w3.org/2000/svg" xmlns:xlink="http://www.w3.org/1999/xlink">
    <!-- Generator: Sketch 39.1 (31720) - http://www.bohemiancoding.com/sketch -->
    <title>linkedin</title>
    <desc>Created with Sketch.</desc>
    <defs></defs>
    <g id="Symbols" stroke="none" stroke-width="1" fill="none" fill-rule="evenodd">
        <g id="Footer" transform="translate(-1638.000000, -442.000000)" fill="#FFFFFF">
            <g id="Column-4">
                <g transform="translate(1234.000000, 195.000000)">
                    <g id="Social-Icons" transform="translate(242.000000, 247.000000)">
                        <g id="linkedin" transform="translate(162.000000, 0.000000)">
                            <path d="M13.1667645,26.5631111 C5.99865561,26.5631111 0.166929167,20.7313847 0.166929167,13.5632758 C0.166929167,6.39483756 5.99865561,0.563111111 13.1667645,0.563111111 C20.3352027,0.563111111 26.1669292,6.39483756 26.1669292,13.5632758 C26.1669292,20.7313847 20.3352027,26.5631111 13.1667645,26.5631111 L13.1667645,26.5631111 Z M13.1667645,1.551316 C6.54348591,1.551316 1.15513405,6.93966785 1.15513405,13.5632758 C1.15513405,20.1865544 6.54348591,25.5749062 13.1667645,25.5749062 C19.7903724,25.5749062 25.1787243,20.1865544 25.1787243,13.5632758 C25.1787243,6.93966785 19.7903724,1.551316 13.1667645,1.551316 L13.1667645,1.551316 Z" id="Linkedin-Cirlce"></path>
                            <path d="M7.98829583,11.2218272 L10.4748375,11.2218272 L10.4748375,19.0970864 L7.98829583,19.0970864 L7.98829583,11.2218272 Z M17.2687333,11.1461235 C15.8442458,11.1461235 14.95165,11.9173333 14.7866875,12.4579753 L14.7866875,11.2218272 L11.9933917,11.2218272 C12.0293583,11.8782716 11.9933917,19.0970864 11.9933917,19.0970864 L14.7866875,19.0970864 L14.7866875,14.8355556 C14.7866875,14.5987654 14.7756208,14.3619753 14.8475542,14.1919012 C15.0394917,13.718321 15.4520708,13.2267654 16.1938833,13.2267654 C17.1639458,13.2267654 17.6048833,13.9551111 17.6048833,15.0218765 L17.6048833,19.0970864 L20.4244625,19.0970864 L20.4244625,14.7183704 C20.4244625,12.2789136 19.0359417,11.1461235 17.2687333,11.1461235 Z M9.18557083,7.50439506 C8.26738333,7.50439506 7.66667083,8.09377778 7.66667083,8.87155556 C7.66667083,9.63481481 8.2504375,10.236642 9.15029583,10.236642 L9.16827917,10.236642 C10.1030667,10.236642 10.6851042,9.63239506 10.6851042,8.86948148 C10.6671208,8.09239506 10.1030667,7.50439506 9.18557083,7.50439506 Z" id="Linkedin"></path>
                        </g>
                    </g>
                </g>
            </g>
        </g>
    </g>
</svg>